<svg width="297" height="44" viewBox="0 0 297 44" fill="none" xmlns="http://www.w3.org/2000/svg">
<path d="M55.3232 35H52.418V10.0146H66.3291V12.5781H55.3232V21.7383H65.6626V24.2847H55.3232V35ZM72.9087 16.2695V35H70.0718V16.2695H72.9087ZM71.5244 9.2627C71.9915 9.2627 72.3903 9.4165 72.7207 9.72412C73.0625 10.0203 73.2334 10.4875 73.2334 11.1255C73.2334 11.7521 73.0625 12.2192 72.7207 12.5269C72.3903 12.8345 71.9915 12.9883 71.5244 12.9883C71.0345 12.9883 70.6243 12.8345 70.2939 12.5269C69.9749 12.2192 69.8154 11.7521 69.8154 11.1255C69.8154 10.4875 69.9749 10.0203 70.2939 9.72412C70.6243 9.4165 71.0345 9.2627 71.5244 9.2627ZM87.7939 15.9277C90.0156 15.9277 91.6961 16.4746 92.8354 17.5684C93.9748 18.6507 94.5444 20.3939 94.5444 22.7979V35H91.7417V22.9858C91.7417 21.425 91.3828 20.2572 90.665 19.4824C89.9587 18.7077 88.8706 18.3203 87.4009 18.3203C85.3273 18.3203 83.869 18.9071 83.0259 20.0806C82.1828 21.2541 81.7612 22.9574 81.7612 25.1904V35H78.9243V16.2695H81.2144L81.6416 18.9697H81.7954C82.1942 18.3089 82.7012 17.7563 83.3164 17.312C83.9316 16.8563 84.6209 16.5145 85.3843 16.2866C86.1476 16.0474 86.9508 15.9277 87.7939 15.9277ZM107.396 15.9619C109.629 15.9619 111.287 16.4632 112.369 17.4658C113.451 18.4684 113.993 20.0692 113.993 22.2681V35H111.925L111.378 32.2314H111.241C110.717 32.915 110.17 33.4904 109.601 33.9575C109.031 34.4132 108.37 34.7607 107.618 35C106.878 35.2279 105.966 35.3418 104.884 35.3418C103.744 35.3418 102.73 35.1424 101.842 34.7437C100.965 34.3449 100.27 33.741 99.7568 32.9321C99.2555 32.1232 99.0049 31.0978 99.0049 29.856C99.0049 27.9875 99.7454 26.5519 101.227 25.5493C102.708 24.5467 104.964 23.9998 107.994 23.9087L111.224 23.772V22.627C111.224 21.0091 110.877 19.8755 110.182 19.2261C109.487 18.5767 108.507 18.252 107.242 18.252C106.262 18.252 105.328 18.3944 104.439 18.6792C103.551 18.964 102.708 19.3001 101.91 19.6875L101.039 17.5342C101.882 17.1012 102.85 16.731 103.944 16.4233C105.038 16.1157 106.188 15.9619 107.396 15.9619ZM111.19 25.7715L108.336 25.8911C106 25.9823 104.354 26.3639 103.397 27.0361C102.44 27.7083 101.961 28.6597 101.961 29.8901C101.961 30.9611 102.286 31.7529 102.936 32.2656C103.585 32.7783 104.445 33.0347 105.516 33.0347C107.18 33.0347 108.541 32.5732 109.601 31.6504C110.66 30.7275 111.19 29.3433 111.19 27.4976V25.7715ZM128.707 15.9277C130.929 15.9277 132.609 16.4746 133.749 17.5684C134.888 18.6507 135.458 20.3939 135.458 22.7979V35H132.655V22.9858C132.655 21.425 132.296 20.2572 131.578 19.4824C130.872 18.7077 129.784 18.3203 128.314 18.3203C126.24 18.3203 124.782 18.9071 123.939 20.0806C123.096 21.2541 122.674 22.9574 122.674 25.1904V35H119.837V16.2695H122.127L122.555 18.9697H122.708C123.107 18.3089 123.614 17.7563 124.229 17.312C124.845 16.8563 125.534 16.5145 126.297 16.2866C127.061 16.0474 127.864 15.9277 128.707 15.9277ZM148.805 35.3418C147.118 35.3418 145.632 34.9943 144.344 34.2993C143.057 33.6043 142.054 32.5448 141.336 31.1206C140.619 29.6965 140.26 27.902 140.26 25.7373C140.26 23.4701 140.636 21.6187 141.388 20.1831C142.151 18.7362 143.199 17.6652 144.532 16.9702C145.865 16.2752 147.381 15.9277 149.078 15.9277C150.012 15.9277 150.912 16.0246 151.778 16.2183C152.656 16.4006 153.373 16.6341 153.932 16.9189L153.077 19.2944C152.507 19.0666 151.847 18.8615 151.095 18.6792C150.354 18.4969 149.659 18.4058 149.01 18.4058C147.711 18.4058 146.629 18.6849 145.763 19.2432C144.908 19.8014 144.264 20.6217 143.832 21.7041C143.41 22.7865 143.199 24.1195 143.199 25.7031C143.199 27.2184 143.404 28.5116 143.814 29.5825C144.236 30.6535 144.857 31.4738 145.677 32.0435C146.509 32.6017 147.546 32.8809 148.788 32.8809C149.779 32.8809 150.673 32.7783 151.471 32.5732C152.268 32.3568 152.992 32.1061 153.641 31.8213V34.3506C153.014 34.6696 152.314 34.9146 151.539 35.0854C150.776 35.2563 149.864 35.3418 148.805 35.3418ZM165.296 15.9277C166.891 15.9277 168.259 16.2809 169.398 16.9873C170.537 17.6937 171.409 18.6849 172.013 19.9609C172.617 21.2256 172.918 22.7067 172.918 24.4043V26.1646H159.981C160.016 28.3634 160.562 30.0382 161.622 31.189C162.682 32.3397 164.174 32.915 166.1 32.915C167.285 32.915 168.333 32.8068 169.244 32.5903C170.156 32.3739 171.101 32.0549 172.081 31.6333V34.1284C171.135 34.55 170.195 34.8576 169.261 35.0513C168.338 35.245 167.245 35.3418 165.98 35.3418C164.18 35.3418 162.608 34.9772 161.263 34.248C159.93 33.5075 158.893 32.4251 158.153 31.001C157.412 29.5768 157.042 27.8337 157.042 25.7715C157.042 23.7549 157.378 22.0117 158.05 20.542C158.734 19.0609 159.691 17.9215 160.921 17.124C162.163 16.3265 163.622 15.9277 165.296 15.9277ZM165.262 18.252C163.747 18.252 162.539 18.7476 161.639 19.7388C160.739 20.73 160.204 22.1143 160.033 23.8916H169.945C169.933 22.7751 169.757 21.7952 169.415 20.9521C169.085 20.0977 168.578 19.4368 167.894 18.9697C167.21 18.4912 166.333 18.252 165.262 18.252Z" fill="#28A745"/>
<path d="M187.418 35V10.0146H190.323V32.4023H201.415V35H187.418ZM212.489 15.9277C214.084 15.9277 215.451 16.2809 216.59 16.9873C217.73 17.6937 218.601 18.6849 219.205 19.9609C219.809 21.2256 220.111 22.7067 220.111 24.4043V26.1646H207.174C207.208 28.3634 207.755 30.0382 208.814 31.189C209.874 32.3397 211.367 32.915 213.292 32.915C214.477 32.915 215.525 32.8068 216.437 32.5903C217.348 32.3739 218.294 32.0549 219.273 31.6333V34.1284C218.328 34.55 217.388 34.8576 216.454 35.0513C215.531 35.245 214.437 35.3418 213.172 35.3418C211.372 35.3418 209.8 34.9772 208.456 34.248C207.123 33.5075 206.086 32.4251 205.345 31.001C204.605 29.5768 204.234 27.8337 204.234 25.7715C204.234 23.7549 204.57 22.0117 205.243 20.542C205.926 19.0609 206.883 17.9215 208.114 17.124C209.356 16.3265 210.814 15.9277 212.489 15.9277ZM212.455 18.252C210.939 18.252 209.732 18.7476 208.832 19.7388C207.931 20.73 207.396 22.1143 207.225 23.8916H217.137C217.126 22.7751 216.949 21.7952 216.607 20.9521C216.277 20.0977 215.77 19.4368 215.086 18.9697C214.403 18.4912 213.526 18.252 212.455 18.252ZM231.595 35.3418C229.225 35.3418 227.346 34.5329 225.956 32.915C224.577 31.2972 223.888 28.8932 223.888 25.7031C223.888 22.4788 224.594 20.0464 226.007 18.4058C227.42 16.7537 229.299 15.9277 231.646 15.9277C232.638 15.9277 233.504 16.0588 234.244 16.3208C234.985 16.5828 235.623 16.936 236.158 17.3804C236.694 17.8133 237.144 18.3089 237.508 18.8672H237.713C237.668 18.514 237.622 18.0298 237.577 17.4146C237.531 16.7993 237.508 16.298 237.508 15.9106V8.4082H240.345V35H238.055L237.628 32.334H237.508C237.155 32.8923 236.705 33.3993 236.158 33.855C235.623 34.3107 234.979 34.6753 234.227 34.9487C233.486 35.2108 232.609 35.3418 231.595 35.3418ZM232.04 32.9834C234.045 32.9834 235.463 32.4137 236.295 31.2744C237.127 30.1351 237.542 28.4432 237.542 26.1987V25.686C237.542 23.3049 237.144 21.4762 236.346 20.2002C235.56 18.9242 234.125 18.2861 232.04 18.2861C230.296 18.2861 228.992 18.9583 228.126 20.3027C227.26 21.6357 226.827 23.4587 226.827 25.7715C226.827 28.0729 227.254 29.8503 228.109 31.1035C228.975 32.3568 230.285 32.9834 232.04 32.9834ZM251.59 43.4082C249.129 43.4082 247.232 42.9468 245.899 42.0239C244.566 41.1125 243.9 39.8307 243.9 38.1787C243.9 37.0052 244.27 36.0026 245.011 35.1709C245.763 34.3392 246.799 33.7866 248.121 33.5132C247.631 33.2853 247.21 32.9435 246.856 32.4878C246.515 32.0321 246.344 31.508 246.344 30.9155C246.344 30.2319 246.532 29.6338 246.908 29.1211C247.295 28.597 247.882 28.0957 248.668 27.6172C247.688 27.2184 246.891 26.5462 246.275 25.6006C245.672 24.6436 245.37 23.5327 245.37 22.2681C245.37 20.9237 245.649 19.7786 246.207 18.833C246.765 17.876 247.574 17.1468 248.634 16.6455C249.693 16.1442 250.975 15.8936 252.479 15.8936C252.809 15.8936 253.14 15.9106 253.47 15.9448C253.812 15.9676 254.137 16.0075 254.444 16.0645C254.752 16.11 255.02 16.167 255.248 16.2354H261.673V18.064L258.221 18.4912C258.563 18.9355 258.848 19.471 259.076 20.0977C259.304 20.7243 259.417 21.4193 259.417 22.1826C259.417 24.0511 258.785 25.5379 257.521 26.6431C256.256 27.7368 254.518 28.2837 252.308 28.2837C251.784 28.2837 251.249 28.2381 250.702 28.147C250.143 28.4546 249.716 28.7964 249.42 29.1724C249.135 29.5483 248.993 29.9813 248.993 30.4712C248.993 30.8358 249.101 31.1263 249.317 31.3428C249.545 31.5592 249.87 31.7188 250.292 31.8213C250.713 31.9124 251.22 31.958 251.812 31.958H255.111C257.15 31.958 258.711 32.3853 259.793 33.2397C260.887 34.0942 261.434 35.3418 261.434 36.9824C261.434 39.056 260.591 40.6453 258.905 41.7505C257.219 42.8556 254.78 43.4082 251.59 43.4082ZM251.676 41.1865C253.225 41.1865 254.507 41.027 255.521 40.708C256.546 40.4004 257.31 39.9504 257.811 39.3579C258.324 38.7769 258.58 38.0819 258.58 37.2729C258.58 36.521 258.409 35.9513 258.067 35.564C257.726 35.188 257.224 34.9373 256.563 34.812C255.903 34.6753 255.094 34.6069 254.137 34.6069H250.89C250.047 34.6069 249.312 34.738 248.685 35C248.058 35.262 247.574 35.6494 247.232 36.1621C246.902 36.6748 246.737 37.3128 246.737 38.0762C246.737 39.0902 247.164 39.8592 248.019 40.3833C248.873 40.9188 250.092 41.1865 251.676 41.1865ZM252.411 26.2158C253.766 26.2158 254.786 25.874 255.47 25.1904C256.153 24.5068 256.495 23.5099 256.495 22.1997C256.495 20.7983 256.148 19.7502 255.453 19.0552C254.758 18.3488 253.732 17.9956 252.376 17.9956C251.078 17.9956 250.075 18.3602 249.369 19.0894C248.674 19.8071 248.326 20.861 248.326 22.251C248.326 23.527 248.679 24.5068 249.386 25.1904C250.092 25.874 251.1 26.2158 252.411 26.2158ZM272.577 15.9277C274.172 15.9277 275.539 16.2809 276.678 16.9873C277.818 17.6937 278.689 18.6849 279.293 19.9609C279.897 21.2256 280.199 22.7067 280.199 24.4043V26.1646H267.262C267.296 28.3634 267.843 30.0382 268.902 31.189C269.962 32.3397 271.454 32.915 273.38 32.915C274.565 32.915 275.613 32.8068 276.524 32.5903C277.436 32.3739 278.382 32.0549 279.361 31.6333V34.1284C278.416 34.55 277.476 34.8576 276.542 35.0513C275.619 35.245 274.525 35.3418 273.26 35.3418C271.46 35.3418 269.888 34.9772 268.543 34.248C267.21 33.5075 266.174 32.4251 265.433 31.001C264.693 29.5768 264.322 27.8337 264.322 25.7715C264.322 23.7549 264.658 22.0117 265.331 20.542C266.014 19.0609 266.971 17.9215 268.202 17.124C269.444 16.3265 270.902 15.9277 272.577 15.9277ZM272.542 18.252C271.027 18.252 269.819 18.7476 268.919 19.7388C268.019 20.73 267.484 22.1143 267.313 23.8916H277.225C277.214 22.7751 277.037 21.7952 276.695 20.9521C276.365 20.0977 275.858 19.4368 275.174 18.9697C274.491 18.4912 273.613 18.252 272.542 18.252ZM293.529 15.9277C293.905 15.9277 294.298 15.9505 294.708 15.9961C295.118 16.0303 295.483 16.0815 295.802 16.1499L295.443 18.7817C295.135 18.702 294.793 18.6393 294.417 18.5938C294.042 18.5482 293.688 18.5254 293.358 18.5254C292.606 18.5254 291.894 18.6792 291.222 18.9868C290.561 19.283 289.98 19.716 289.479 20.2856C288.977 20.8439 288.584 21.5218 288.299 22.3193C288.014 23.1055 287.872 23.9827 287.872 24.9512V35H285.018V16.2695H287.376L287.684 19.7217H287.804C288.191 19.0267 288.658 18.3944 289.205 17.8247C289.752 17.2437 290.384 16.7822 291.102 16.4404C291.831 16.0986 292.64 15.9277 293.529 15.9277Z" fill="white"/>
<path d="M37.0025 8.19097C33.2628 8.40357 25.8298 9.17739 21.2412 11.9911C20.9245 12.1852 20.745 12.5304 20.745 12.8914V37.7653C20.745 38.5548 21.6069 39.0539 22.3337 38.6875C27.0547 36.3072 33.8824 35.6578 37.2584 35.48C38.411 35.4192 39.307 34.4936 39.307 33.3841V10.2896C39.3077 9.07896 38.2595 8.11987 37.0025 8.19097ZM18.0658 11.9911C13.4779 9.17739 6.04492 8.40425 2.30523 8.19097C1.04821 8.11987 0 9.07896 0 10.2896V33.3848C0 34.495 0.896024 35.4206 2.04864 35.4807C5.42596 35.6585 12.257 36.3085 16.9781 38.6902C17.7028 39.0559 18.562 38.5576 18.562 37.7701V12.8791C18.562 12.5174 18.3832 12.1859 18.0658 11.9911Z" fill="#28A745"/>
</svg>
