<svg width="35" height="35" viewBox="0 0 35 35" fill="none" xmlns="http://www.w3.org/2000/svg">
<g clip-path="url(#clip0_0_274)">
<path d="M34.0361 9.71386L30.8848 12.8652C30.5635 13.1865 30.044 13.1865 29.7227 12.8652L22.1348 5.27734C21.8135 4.95605 21.8135 4.43652 22.1348 4.11523L25.2861 0.963866C26.5645 -0.314453 28.6426 -0.314453 29.9277 0.963866L34.0361 5.07226C35.3213 6.35058 35.3213 8.42871 34.0361 9.71386ZM19.4277 6.82226L1.47658 24.7734L0.0273567 33.0791C-0.170886 34.2002 0.806654 35.1709 1.92775 34.9795L10.2334 33.5234L28.1846 15.5723C28.5059 15.251 28.5059 14.7314 28.1846 14.4101L20.5967 6.82226C20.2686 6.50097 19.749 6.50097 19.4277 6.82226ZM8.48341 23.2353C8.10743 22.8594 8.10743 22.2578 8.48341 21.8818L19.0108 11.3545C19.3867 10.9785 19.9883 10.9785 20.3643 11.3545C20.7402 11.7305 20.7402 12.332 20.3643 12.708L9.83693 23.2353C9.46095 23.6113 8.85939 23.6113 8.48341 23.2353ZM6.01564 28.9844H9.29689V31.4658L4.88771 32.2383L2.76173 30.1123L3.53419 25.7031H6.01564V28.9844Z" fill="white"/>
</g>
<defs>
<clipPath id="clip0_0_274">
<rect width="35" height="35" fill="white"/>
</clipPath>
</defs>
</svg>
