<svg width="35" height="35" viewBox="0 0 35 35" fill="none" xmlns="http://www.w3.org/2000/svg">
<path d="M33.9062 8.75002V9.84377C33.9062 9.98881 33.8486 10.1279 33.7461 10.2305C33.6435 10.333 33.5044 10.3906 33.3594 10.3906H31.7188V11.211C31.7188 11.664 31.3515 12.0313 30.8984 12.0313H4.10156C3.64855 12.0313 3.28125 11.664 3.28125 11.211V10.3906H1.64062C1.49558 10.3906 1.35648 10.333 1.25393 10.2305C1.15137 10.1279 1.09375 9.98881 1.09375 9.84377V8.75002C1.09375 8.64183 1.12584 8.53607 1.18597 8.44612C1.24609 8.35617 1.33154 8.28608 1.43151 8.24471L17.2909 2.22908C17.4248 2.17364 17.5752 2.17364 17.7091 2.22908L33.5685 8.24471C33.6685 8.28608 33.7539 8.35617 33.814 8.44612C33.8742 8.53607 33.9062 8.64183 33.9062 8.75002ZM32.2656 29.5313H2.73438C1.82827 29.5313 1.09375 30.2658 1.09375 31.1719V32.2656C1.09375 32.4107 1.15137 32.5498 1.25393 32.6523C1.35648 32.7549 1.49558 32.8125 1.64062 32.8125H33.3594C33.5044 32.8125 33.6435 32.7549 33.7461 32.6523C33.8486 32.5498 33.9062 32.4107 33.9062 32.2656V31.1719C33.9062 30.2658 33.1717 29.5313 32.2656 29.5313ZM6.5625 13.125V26.25H4.10156C3.64855 26.25 3.28125 26.6173 3.28125 27.0703V28.4375H31.7188V27.0703C31.7188 26.6173 31.3515 26.25 30.8984 26.25H28.4375V13.125H24.0625V26.25H19.6875V13.125H15.3125V26.25H10.9375V13.125H6.5625Z" fill="white"/>
</svg>
