<svg width="22" height="20" viewBox="0 0 22 20" fill="none" xmlns="http://www.w3.org/2000/svg">
<path d="M10.0853 0.918174C10.3851 -0.00210297 11.687 -0.00210214 11.9869 0.918175L13.738 6.29257C13.8721 6.7042 14.2559 6.98278 14.6888 6.98278H20.3495C21.3189 6.98278 21.7213 8.22381 20.9363 8.79257L16.3614 12.1072C16.0099 12.3619 15.8629 12.8141 15.9973 13.2268L17.7459 18.5934C18.0459 19.5143 16.9926 20.2812 16.2084 19.713L11.6228 16.3907C11.2728 16.137 10.7994 16.137 10.4494 16.3907L5.86382 19.713C5.07956 20.2812 4.02627 19.5143 4.3263 18.5934L6.07487 13.2268C6.20932 12.8141 6.06224 12.3619 5.71078 12.1072L1.13591 8.79257C0.350903 8.22381 0.753233 6.98278 1.72263 6.98278H7.38338C7.81631 6.98278 8.20007 6.7042 8.33419 6.29257L10.0853 0.918174Z" fill="#070707"/>
</svg>
