<svg width="21" height="20" viewBox="0 0 21 20" fill="none" xmlns="http://www.w3.org/2000/svg">
<path d="M9.37679 0.918174C9.67663 -0.00210297 10.9785 -0.00210214 11.2784 0.918175L13.0295 6.29257C13.1636 6.7042 13.5474 6.98278 13.9803 6.98278H19.641C20.6104 6.98278 21.0128 8.22381 20.2278 8.79257L15.6529 12.1072C15.3014 12.3619 15.1544 12.8141 15.2888 13.2268L17.0374 18.5934C17.3374 19.5143 16.2841 20.2812 15.4999 19.713L10.9143 16.3907C10.5643 16.137 10.0909 16.137 9.74087 16.3907L5.15532 19.713C4.37107 20.2812 3.31778 19.5143 3.6178 18.5934L5.36637 13.2268C5.50083 12.8141 5.35375 12.3619 5.00229 12.1072L0.427413 8.79257C-0.357594 8.22381 0.0447371 6.98278 1.01413 6.98278H6.67489C7.10781 6.98278 7.49157 6.7042 7.62569 6.29257L9.37679 0.918174Z" fill="#E5E5E5"/>
</svg>
